<?xml version="1.0" encoding="UTF-8"?> <svg xmlns="http://www.w3.org/2000/svg" width="2451" height="943" viewBox="0 0 2451 943" fill="none"> <path d="M617.3 805.73C610.221 821.707 603.615 836.676 596.921 851.669C585.127 878.26 573.282 904.826 561.575 931.479C558.975 937.451 555.192 940.948 548.524 940.96C541.855 940.972 538.185 937.227 535.572 931.354C510.988 876.02 486.441 820.674 461.471 765.527C455.35 752.026 461.894 741.649 471.287 737.244C483.045 731.719 497.414 736.435 502.553 747.845C513.464 772.097 524.176 796.46 534.9 820.774C540.549 833.49 546.185 846.157 552.318 859.869C554.62 854.892 556.573 850.861 558.44 846.705C573.577 813.208 588.689 779.695 603.776 746.166C606.6 739.857 610.893 736.597 617.885 736.647C624.641 736.721 628.224 740.38 630.849 746.24C647.072 782.69 663.404 819.09 679.843 855.44C680.39 856.684 681.087 857.816 682.083 859.62L702.536 814.079C712.29 792.387 722.057 770.707 731.836 749.04C733.125 746.178 734.966 743.598 737.253 741.447C739.54 739.296 742.228 737.617 745.163 736.506C748.099 735.394 751.225 734.872 754.363 734.969C757.5 735.065 760.588 735.779 763.449 737.07C765.718 738.09 767.817 739.454 769.67 741.114C772.719 743.751 774.84 747.297 775.722 751.23C776.605 755.164 776.202 759.277 774.572 762.964C749.167 819.645 723.732 876.306 698.269 932.947C695.781 938.509 691.438 940.948 685.628 940.91C679.818 940.873 675.675 938.26 673.187 932.673C655.503 892.258 637.75 851.868 619.925 811.504C619.204 809.898 618.494 808.355 617.3 805.73V805.73Z" fill="#474747"></path> <path d="M1139.89 830.463C1149.65 834.009 1158.11 838.625 1164.78 845.904C1186.14 869.173 1181.87 904.2 1155.45 923.051C1141.98 932.669 1126.73 936.9 1110.43 937.074C1082.71 937.348 1054.97 937.186 1027.25 937.074C1012.89 937.074 1003.61 927.543 1003.61 913.159V761.79C1003.61 748.824 1011.2 740.251 1024.06 738.596C1025.42 738.358 1026.79 738.209 1028.17 738.148C1056.67 738.348 1085.2 737.924 1113.67 739.094C1130.92 739.778 1145.51 747.966 1156.67 761.355C1164.09 770.298 1167.66 781.824 1166.59 793.399C1165.53 804.974 1159.9 815.652 1150.97 823.084C1149.71 824.129 1148.4 825.101 1147.04 825.996C1144.88 827.464 1142.63 828.783 1139.89 830.463V830.463ZM1050.32 905.183C1065.46 905.183 1080.18 905.245 1094.82 905.183C1098.72 905.223 1102.62 904.931 1106.48 904.312C1122.91 901.35 1133.59 887.327 1131.15 872.196C1129.27 860.438 1117.65 849.625 1103.88 848.916C1086.57 847.97 1069.18 848.43 1051.82 848.318C1051.3 848.409 1050.79 848.576 1050.32 848.816V905.183ZM1050.42 770.799V817.783C1066.05 817.783 1081.4 818.294 1096.67 817.634C1110.06 817.062 1120.73 805.925 1120.78 793.992C1120.78 782.433 1111.64 771.919 1098.39 771.073C1082.56 770.04 1066.59 770.811 1050.44 770.811L1050.42 770.799Z" fill="#474747"></path> <path d="M2408.6 815.639L2379.61 852.532C2369.66 865.216 2359.68 877.895 2349.68 890.57C2343.46 898.397 2334.49 898.335 2328.31 890.421C2310.37 867.451 2292.43 844.477 2274.51 821.499C2272.94 819.287 2271 817.363 2268.77 815.813V820.516C2268.77 853.428 2268.48 886.34 2268.94 919.251C2269.1 929.703 2260.82 940.74 2249.29 940.79C2236.97 940.79 2228.29 931.769 2228.28 919.164V750.388C2228.28 742.661 2231.34 737.945 2237.58 735.705C2243.83 733.466 2249.45 735.419 2254.14 741.193L2336.26 842.192C2337.13 843.25 2338.1 844.233 2339.4 845.676L2358.44 822.171C2380.29 795.129 2402.15 768.086 2424.02 741.043C2429.65 734.125 2438.43 732.893 2444.81 737.933C2446.56 739.26 2447.97 740.991 2448.92 742.98C2449.86 744.968 2450.31 747.155 2450.23 749.355C2450.23 806.402 2450.23 863.449 2450.23 920.496C2450.27 925.862 2448.18 931.024 2444.42 934.85C2440.66 938.676 2435.53 940.853 2430.16 940.902H2429.54C2418.34 940.715 2409.8 931.781 2409.8 920.122V815.925L2408.6 815.639Z" fill="#474747"></path> <path d="M180.433 815.536C174.162 823.483 167.913 831.426 161.684 839.364L121.597 890.38C115.178 898.518 106.294 898.481 99.9742 890.318C81.8429 867.091 63.7241 843.864 45.6177 820.638C44.3735 818.958 42.9802 817.278 40.8402 814.565C40.7158 817.477 40.5789 819.107 40.5789 820.787V920.48C40.6085 925.473 38.8065 930.304 35.514 934.058C32.2215 937.812 27.667 940.228 22.713 940.849C17.831 941.33 12.9363 940.068 8.89636 937.284C4.85641 934.501 1.93212 930.377 0.641923 925.644C0.169429 923.508 -0.0436278 921.323 0.00739877 919.136C0.00739877 863.043 0.00739877 806.938 0.00739877 750.82C0.00739877 742.72 3.04308 737.942 9.46285 735.777C15.8826 733.611 21.2324 735.615 26.2712 741.811L108.061 842.425C108.845 843.371 109.703 844.304 110.948 845.723C112.266 844.205 113.436 842.91 114.605 841.492C141.479 808.219 168.278 774.897 195.338 741.811C197.878 738.714 201.33 736.498 205.204 735.478C214.61 733.462 221.913 740.181 221.937 750.074C221.937 781.106 221.937 812.139 221.937 843.172C221.937 869.028 222.012 894.885 221.937 920.741C221.91 925.634 220.115 930.352 216.884 934.025C213.652 937.699 209.202 940.08 204.353 940.73C199.504 941.38 194.584 940.255 190.499 937.563C186.414 934.871 183.44 930.792 182.125 926.079C181.651 923.944 181.442 921.758 181.503 919.572V816.059L180.433 815.536Z" fill="#474747"></path> <path d="M2072.68 940.946C2025.67 940.946 1983.52 911.021 1969.98 868.018C1954.85 819.914 1977.2 769.072 2023.69 745.779C2077.57 718.777 2143.69 740.478 2170.26 793.896C2194.37 842.336 2174.65 901.092 2125.36 927.844C2108.71 936.915 2092.32 940.946 2072.68 940.946V940.946ZM2137.45 837.869C2137.45 801.697 2108.94 772.879 2073.11 772.879C2056.02 772.879 2039.63 779.64 2027.5 791.685C2015.38 803.731 2008.52 820.083 2008.41 837.172C2008.41 873.145 2036.9 902.286 2072.19 902.311C2108.86 902.311 2137.44 874.078 2137.47 837.869H2137.45Z" fill="#474747"></path> <path d="M1577.42 859.481C1582.48 866.449 1587.37 873.168 1592.2 879.838C1599.56 889.975 1606.94 900.103 1614.33 910.223C1620.49 918.697 1619.59 928.95 1612.09 935.619C1608.45 938.902 1603.69 940.677 1598.79 940.585C1593.89 940.492 1589.2 938.539 1585.69 935.122C1582.18 931.328 1578.94 927.304 1575.97 923.077C1562.81 905.532 1549.69 887.98 1536.62 870.418C1535.85 869.186 1534.75 868.188 1533.45 867.53C1532.16 866.872 1530.71 866.58 1529.25 866.686C1519.23 866.91 1509.2 866.76 1499.17 866.785C1497.64 866.785 1496.11 866.934 1494.02 867.046V919.381C1494.02 931.613 1485.19 940.709 1473.34 940.92C1461.19 941.144 1451.72 932.21 1451.72 919.854C1451.61 865.163 1451.61 810.477 1451.72 755.794C1451.72 744.321 1456.22 739.618 1467.58 738.374C1468.99 738.212 1470.4 738.137 1471.81 738.15H1551.24C1571.14 738.15 1588.56 744.371 1603.01 758.668C1629.26 784.599 1629.47 839.323 1581.73 857.863L1577.42 859.481ZM1494.39 772.38V834.732H1499.37C1515.02 834.657 1530.71 835.118 1546.32 834.346C1551.93 834.2 1557.41 832.622 1562.23 829.762C1567.06 826.903 1571.07 822.857 1573.89 818.009C1584.9 799.68 1572.76 775.043 1550.26 772.803C1531.99 770.912 1513.4 772.418 1494.41 772.418L1494.39 772.38Z" fill="#474747"></path> <path d="M1836.93 940.902C1791.61 940.902 1749.84 911.462 1735.93 868.497C1720.89 822.222 1740.91 773.184 1784.92 748.136C1832.53 721.073 1894.64 734.449 1925.34 778.447C1930.32 785.577 1932.2 793.254 1928.5 801.467C1927.07 804.988 1924.64 808.011 1921.5 810.159C1918.37 812.308 1914.67 813.486 1910.87 813.549C1902.94 813.935 1896.78 810.898 1892.43 803.806C1878.34 780.637 1853.26 769.103 1827.56 773.619C1813.92 776.066 1801.41 782.815 1791.87 792.879C1782.33 802.942 1776.26 815.794 1774.54 829.555C1772.82 843.316 1775.55 857.265 1782.33 869.365C1789.1 881.464 1799.57 891.079 1812.2 896.805C1839.31 909.248 1870.89 900.824 1889.34 876.112C1893.47 870.575 1898.26 865.921 1905 863.98C1913.24 861.603 1920.23 864.067 1925.6 870.562C1931.54 877.742 1931.67 885.78 1927.89 893.93C1923.39 903.673 1916.19 911.276 1907.65 917.634C1887.23 932.989 1864.4 941.276 1836.93 940.902Z" fill="#474747"></path> <path d="M853.438 774.251V819.929H933.611C937.321 819.837 940.961 820.955 943.98 823.115C946.999 825.274 949.233 828.358 950.345 831.899C952.435 839.141 949.685 847.304 942.954 851.024C939.482 852.772 935.644 853.667 931.757 853.637C907.306 853.861 882.838 853.861 858.353 853.637C854.347 853.637 852.891 854.57 853.003 858.813C853.277 871.343 853.09 883.874 853.115 896.428C853.115 897.822 853.264 899.253 853.364 901.132C855.342 901.219 857.096 901.368 858.95 901.368H937.928C948.677 901.368 956.839 909.046 956.914 919.162C956.988 929.278 948.852 937.03 938.04 937.03H827.137C816.152 937.03 810.553 931.642 810.54 920.63C810.466 865.317 810.466 810.012 810.54 754.716C810.54 744.288 814.907 739.672 825.284 738.353C826.843 738.154 828.414 738.054 829.986 738.055C864.287 738.055 898.613 737.93 932.902 738.179C937.405 738.202 941.834 739.325 945.804 741.451C952.87 745.433 955.408 753.894 953.069 761.534C951.878 765.212 949.548 768.416 946.418 770.684C943.287 772.951 939.517 774.166 935.651 774.152C910.271 774.214 884.878 774.152 859.497 774.152L853.438 774.251Z" fill="#474747"></path> <path d="M1392.85 940.941C1385.47 940.804 1379.02 937.047 1374.99 929.407C1370.36 920.535 1365.78 911.626 1361.41 902.617C1360.04 899.792 1358.33 898.884 1355.19 898.884C1324.64 899.008 1294.09 899.008 1263.55 898.884C1260.28 898.884 1258.43 899.867 1256.97 902.791C1252.35 912.024 1247.65 921.232 1242.72 930.29C1240.72 934.067 1237.58 937.112 1233.74 938.988C1229.9 940.864 1225.57 941.473 1221.36 940.73C1212.65 939.423 1206.09 933.749 1204.03 925.686C1202.58 920.037 1203.9 914.935 1206.63 909.908C1233.65 859.938 1260.63 809.958 1287.57 759.971C1290.47 754.595 1293.41 749.245 1296.28 743.857C1299.15 738.469 1303.34 735.707 1309.44 735.707C1315.55 735.707 1319.4 738.594 1322.16 743.745C1352.13 799.589 1382.12 855.412 1412.12 911.215C1419.72 925.089 1409.91 940.941 1392.85 940.941V940.941ZM1343.82 868.436L1309.2 801.58L1274.94 868.337L1343.82 868.436Z" fill="#474747"></path> <path d="M342.022 829.44C350.594 816.997 358.781 805.201 366.905 793.356L399.987 745.4C404.316 739.179 409.853 734.961 417.853 735.06C426.313 735.06 432.782 738.918 436.515 746.259C438.444 749.621 439.336 753.478 439.079 757.346C438.822 761.214 437.428 764.919 435.072 767.997C412.453 799.959 389.805 831.896 367.129 863.808C364.607 867.168 363.32 871.294 363.484 875.492C363.695 889.278 363.583 903.065 363.546 916.864C363.546 929.867 354.476 939.262 342.072 939.262C329.668 939.262 320.573 929.979 320.548 917.001C320.548 902.58 320.673 888.158 320.424 873.75C320.356 870.856 319.496 868.037 317.936 865.599C295.815 833.14 273.582 800.734 251.237 768.383C246.261 761.166 245.601 753.451 249.881 745.811C257.582 732.124 276.257 731.713 285.414 744.94C294.571 758.167 303.379 771.73 312.337 785.143C322.103 799.614 331.82 814.198 342.022 829.44V829.44Z" fill="#474747"></path> <path d="M1699.98 918.783C1699.85 925.09 1697.27 931.1 1692.78 935.525C1688.28 939.951 1682.23 942.44 1675.92 942.461C1669.62 942.483 1663.55 940.033 1659.03 935.638C1654.5 931.243 1651.88 925.251 1651.71 918.945V918.348C1651.81 905.308 1662.61 894.943 1676.08 894.992C1682.4 894.979 1688.46 897.476 1692.95 901.935C1697.43 906.393 1699.96 912.449 1699.98 918.771V918.783Z" fill="#474747"></path> <path fill-rule="evenodd" clip-rule="evenodd" d="M2345.57 306.985C2331.43 321.174 2315.17 332.564 2297.6 341.107L2450 575.178H2267.05L2131.4 358.288H1992.41L1991.4 356.695V573.488H1840.25L1838.56 1.14844H2231.15C2242.01 1.14844 2252.86 1.9689 2263.72 4.47853C2296.3 11.1387 2325.54 27.0169 2348.95 50.424C2370.66 72.1419 2385.72 99.6996 2393.2 129.815C2396.53 142.363 2398.22 155.732 2398.22 169.1C2398.22 174.94 2398.22 180.78 2397.4 186.668C2395.66 232.613 2377.32 275.229 2345.57 306.985ZM2204.36 248.106C2204.36 248.106 2222.22 243.279 2222.75 243.086C2238.53 237.15 2245.14 225.905 2248.67 218.859C2251.17 212.15 2252.86 205.49 2252.86 197.961C2252.86 195.355 2252.82 192.218 2252.77 188.84C2252.38 182.614 2250.84 176.871 2248.71 171.176C2245.19 164.13 2238.58 152.836 2222.8 146.948C2222.32 146.803 2204.41 141.929 2204.41 141.929H1991.4L1991.01 194.245L1991.45 248.106H2204.36Z" fill="#F4A48D"></path> <path fill-rule="evenodd" clip-rule="evenodd" d="M2339.2 306.79C2325.06 320.979 2308.79 332.369 2291.23 340.911L2443.63 574.982H2260.68L2125.03 358.093H1986.04L1985.03 356.5V573.293H1833.88L1832.19 0.953125H2224.78C2235.63 0.953125 2246.49 1.77359 2257.35 4.28322C2289.93 10.9434 2319.17 26.8216 2342.58 50.2287C2364.29 71.9467 2379.35 99.5043 2386.83 129.62C2390.16 142.168 2391.85 155.537 2391.85 168.905C2391.85 174.745 2391.85 180.585 2391.03 186.473C2389.29 232.418 2370.9 275.033 2339.2 306.79ZM2197.99 247.91C2197.99 247.91 2215.85 243.084 2216.38 242.891C2232.16 236.955 2238.77 225.71 2242.29 218.663C2244.8 212.003 2246.49 205.295 2246.49 197.766C2246.49 195.16 2246.44 192.023 2246.4 188.644C2246.01 182.419 2244.47 176.675 2242.34 170.981C2238.82 163.934 2232.21 152.641 2216.43 146.753C2215.94 146.608 2198.04 141.734 2198.04 141.734H1985.03L1984.64 194.05L1985.08 247.91H2197.99Z" fill="url(#paint0_linear_5902_4712)"></path> <path d="M1984.98 109.441H1832.72V573.336H1984.98V109.441Z" fill="url(#paint1_linear_5902_4712)"></path> <path fill-rule="evenodd" clip-rule="evenodd" d="M1838.66 573.53L1472.52 1.96255L1625.07 1.76953L1989.8 573.53H1838.66Z" fill="#F4A48D"></path> <path fill-rule="evenodd" clip-rule="evenodd" d="M1487.38 330.102L1486.61 329.329L1550.26 221.367L1613.92 329.329L1613.14 330.102H1487.38Z" fill="#F4A48D"></path> <path fill-rule="evenodd" clip-rule="evenodd" d="M1833.83 573.337L1467.69 1.76953H1620.33L1984.98 573.337H1833.83Z" fill="url(#paint2_linear_5902_4712)"></path> <path fill-rule="evenodd" clip-rule="evenodd" d="M1580.04 177.109L1513.83 73.0561L1621.98 4.23438L1688.19 108.287L1580.04 177.109Z" fill="url(#paint3_linear_5902_4712)"></path> <path fill-rule="evenodd" clip-rule="evenodd" d="M1287.59 574.109L1219.16 436.659L1468.13 1.76953H1622.27L1287.59 574.109Z" fill="#F4A48D"></path> <path fill-rule="evenodd" clip-rule="evenodd" d="M1282.57 574.109L1214.14 436.659L1294.73 295.879L1463.11 1.76953H1617.24L1282.57 574.109Z" fill="url(#paint4_linear_5902_4712)"></path> <path fill-rule="evenodd" clip-rule="evenodd" d="M1441.15 305.196L1310.75 525.946L1239.14 392.55L1367.22 172.668L1441.15 305.196Z" fill="url(#paint5_linear_5902_4712)"></path> <path d="M1550.31 221.414H1543.94V227.399H1550.31V221.414Z" fill="#F4A48D"></path> <path fill-rule="evenodd" clip-rule="evenodd" d="M1481.01 329.909L1480.24 329.136L1543.89 221.367L1607.55 329.136L1606.77 329.909H1481.01Z" fill="url(#paint6_linear_5902_4712)"></path> <path fill-rule="evenodd" clip-rule="evenodd" d="M860.887 329.086L860.115 328.314L923.768 220.352L987.422 328.314L986.65 329.086H860.887Z" fill="#A4D3B9"></path> <path fill-rule="evenodd" clip-rule="evenodd" d="M1288.46 572.666L1003.93 0.953125H1156.57L1371.32 430.92L1288.46 572.666Z" fill="#A4D3B9"></path> <path fill-rule="evenodd" clip-rule="evenodd" d="M1108.31 433.671L1181.37 572.521H627.846V1.24276L1003.93 0.953125L1074.72 143.761L774.89 144.581V432.899L1108.31 433.671ZM529.398 452.879C475.928 529.761 388.531 572.521 294.957 572.521L0 573.341V2.06321L153.318 1.24276V1.72534H294.62C388.193 1.72534 475.879 47.6709 529.35 124.552L531.859 127.062C564.434 174.697 582 230.681 582 289.174C582 346.847 564.434 402.783 531.859 450.418C531.087 451.238 530.267 452.059 529.398 452.879ZM411.647 207.274C384.912 168.857 341.479 145.45 294.716 145.45H153.415V432.851H294.716C298.046 432.851 301.376 432.851 304.754 432.851C348.187 430.341 387.469 407.802 412.516 371.847C412.516 371.027 412.516 371.027 412.516 371.027C428.393 346.799 436.741 318.373 436.741 289.126C436.693 259.879 428.344 231.501 411.647 207.274Z" fill="#A4D3B9"></path> <path fill-rule="evenodd" clip-rule="evenodd" d="M1282.57 574.115L997.604 1.72656H1150.25L1365.38 432.466L1282.57 574.115Z" fill="url(#paint7_linear_5902_4712)"></path> <path fill-rule="evenodd" clip-rule="evenodd" d="M1101.99 434.487L1175.05 573.337H621.523V2.05909L997.603 1.76953L1068.4 144.577L768.567 145.397V433.715L1101.99 434.487ZM523.075 453.696C469.604 530.577 382.208 573.337 288.634 573.337H0.046875V2.05909H147.091V2.54167H288.393C381.966 2.54167 469.653 48.4872 523.123 125.369L525.633 127.878C558.207 175.513 575.773 231.497 575.773 289.991C575.773 347.664 558.207 403.6 525.633 451.234C524.764 452.055 523.944 452.875 523.075 453.696ZM405.324 208.042C378.588 169.625 335.155 146.218 288.393 146.218H147.091V433.619H288.393C291.723 433.619 295.052 433.619 298.431 433.619C341.863 431.109 381.146 408.571 406.192 372.615C406.192 371.795 406.192 371.795 406.192 371.795C422.069 347.567 430.418 319.141 430.418 289.894C430.37 260.695 422.021 232.269 405.324 208.042Z" fill="url(#paint8_linear_5902_4712)"></path> <path fill-rule="evenodd" clip-rule="evenodd" d="M854.565 329.906L853.793 329.134L917.446 221.172L981.1 329.134L980.327 329.906H854.565Z" fill="url(#paint9_linear_5902_4712)"></path> <defs> <linearGradient id="paint0_linear_5902_4712" x1="2137.87" y1="0.99463" x2="2137.87" y2="575.005" gradientUnits="userSpaceOnUse"> <stop stop-color="#F16FB8"></stop> <stop offset="1" stop-color="#FF784D"></stop> </linearGradient> <linearGradient id="paint1_linear_5902_4712" x1="1788.29" y1="435.662" x2="2099.69" y2="192.226" gradientUnits="userSpaceOnUse"> <stop></stop> <stop offset="0.0774" stop-color="#24130D" stop-opacity="0.8951"></stop> <stop offset="0.2133" stop-color="#5D3021" stop-opacity="0.7109"></stop> <stop offset="0.339" stop-color="#8A4831" stop-opacity="0.5404"></stop> <stop offset="0.4506" stop-color="#AA593C" stop-opacity="0.3892"></stop> <stop offset="0.5437" stop-color="#BE6343" stop-opacity="0.2629"></stop> <stop offset="0.6072" stop-color="#C56746" stop-opacity="0.177"></stop> <stop offset="0.66" stop-color="#D36E4B" stop-opacity="0.1525"></stop> <stop offset="0.7462" stop-color="#E27650" stop-opacity="0.1125"></stop> <stop offset="0.8459" stop-color="#EB7B53" stop-opacity="0.0663"></stop> <stop offset="0.989" stop-color="#EE7C54" stop-opacity="0"></stop> </linearGradient> <linearGradient id="paint2_linear_5902_4712" x1="1522.04" y1="163.618" x2="1793" y2="327.368" gradientUnits="userSpaceOnUse"> <stop stop-color="#F16FB8"></stop> <stop offset="0.9523" stop-color="#FF784D"></stop> </linearGradient> <linearGradient id="paint3_linear_5902_4712" x1="1532.89" y1="84.8685" x2="1647.41" y2="167.689" gradientUnits="userSpaceOnUse"> <stop stop-opacity="0.6"></stop> <stop offset="0.0293" stop-color="#090503" stop-opacity="0.5824"></stop> <stop offset="0.3043" stop-color="#592F20" stop-opacity="0.4174"></stop> <stop offset="0.5485" stop-color="#995036" stop-opacity="0.2709"></stop> <stop offset="0.7529" stop-color="#C76846" stop-opacity="0.1483"></stop> <stop offset="0.9096" stop-color="#E37750" stop-opacity="0.0542"></stop> <stop offset="1" stop-color="#EE7C54" stop-opacity="0"></stop> </linearGradient> <linearGradient id="paint4_linear_5902_4712" x1="1415.71" y1="148.409" x2="1415.71" y2="479.965" gradientUnits="userSpaceOnUse"> <stop offset="0.00718779" stop-color="#F16FB8"></stop> <stop offset="0.4121" stop-color="#FF784D"></stop> </linearGradient> <linearGradient id="paint5_linear_5902_4712" x1="1235.45" y1="367.675" x2="1523.99" y2="122.759" gradientUnits="userSpaceOnUse"> <stop></stop> <stop offset="0.0503" stop-color="#24130D" stop-opacity="0.8951"></stop> <stop offset="0.1385" stop-color="#5D3021" stop-opacity="0.7109"></stop> <stop offset="0.2202" stop-color="#8A4831" stop-opacity="0.5404"></stop> <stop offset="0.2926" stop-color="#AA593C" stop-opacity="0.3892"></stop> <stop offset="0.3531" stop-color="#BE6343" stop-opacity="0.2629"></stop> <stop offset="0.3943" stop-color="#C56746" stop-opacity="0.177"></stop> <stop offset="0.4766" stop-color="#D36E4B" stop-opacity="0.1525"></stop> <stop offset="0.6108" stop-color="#E27650" stop-opacity="0.1125"></stop> <stop offset="0.7661" stop-color="#EB7B53" stop-opacity="0.0663"></stop> <stop offset="0.989" stop-color="#EE7C54" stop-opacity="0"></stop> </linearGradient> <linearGradient id="paint6_linear_5902_4712" x1="1543.92" y1="329.918" x2="1543.92" y2="221.393" gradientUnits="userSpaceOnUse"> <stop stop-color="#F16FB8"></stop> <stop offset="1" stop-color="#EE7C54"></stop> </linearGradient> <linearGradient id="paint7_linear_5902_4712" x1="1181.51" y1="574.13" x2="1181.51" y2="1.75795" gradientUnits="userSpaceOnUse"> <stop stop-color="#39E1C6"></stop> <stop offset="1" stop-color="#087A80"></stop> </linearGradient> <linearGradient id="paint8_linear_5902_4712" x1="587.557" y1="1.75264" x2="587.557" y2="573.33" gradientUnits="userSpaceOnUse"> <stop stop-color="#39E1C6"></stop> <stop offset="1" stop-color="#087A80"></stop> </linearGradient> <linearGradient id="paint9_linear_5902_4712" x1="917.495" y1="221.211" x2="917.495" y2="329.916" gradientUnits="userSpaceOnUse"> <stop stop-color="#5EBDB2"></stop> <stop offset="1" stop-color="#087A80"></stop> </linearGradient> </defs> </svg> 